name Run_500 04_newCOP3_v24.mot
datacolumns 19
datarows 81
range 0.08 0.12
DataType=double
version=3
OpenSimVersion=4.3-2021-08-27-4bc7ad9
endheader
time	R_ground_force_vx	R_ground_force_vy	R_ground_force_vz	R_ground_force_px	R_ground_force_py	R_ground_force_pz	L_ground_force_vx	L_ground_force_vy	L_ground_force_vz	L_ground_force_px	L_ground_force_py	L_ground_force_pz	R_ground_torque_x	R_ground_torque_y	R_ground_torque_z	L_ground_torque_x	L_ground_torque_y	L_ground_torque_z
0.08	0	0	0	0	0	0	99.20863300000001	1854.258301	-33.527275	0.948283	0	-0.395332	0	0	0	0	-18.983854	0
0.0805	0	0	0	0	0	0	101.485413	1851.067261	-34.221622	0.947563	0	-0.395376	0	0	0	0	-18.291048	0
0.081	0	0	0	0	0	0	103.863266	1847.699341	-34.938976	0.946804	0	-0.395421	0	0	0	0	-17.597317	0
0.0815	0	0	0	0	0	0	106.336586	1844.155273	-35.677841	0.946006	0	-0.395467	0	0	0	0	-16.902964	0
0.082	0	0	0	0	0	0	108.899826	1840.435059	-36.436668	0.94517	0	-0.395513	0	0	0	0	-16.208284	0
0.0825	0	0	0	0	0	0	111.547478	1836.538818	-37.213852	0.944295	0	-0.395558	0	0	0	0	-15.513584	0
0.083	0	0	0	0	0	0	114.274109	1832.466309	-38.007759	0.9433820000000001	0	-0.395603	0	0	0	0	-14.819166	0
0.0835	0	0	0	0	0	0	117.074287	1828.216919	-38.816738	0.942431	0	-0.395646	0	0	0	0	-14.125333	0
0.08400000000000001	0	0	0	0	0	0	119.94265	1823.790283	-39.639114	0.941443	0	-0.395688	0	0	0	0	-13.432389	0
0.08450000000000001	0	0	0	0	0	0	122.873871	1819.185547	-40.473217	0.940418	0	-0.395729	0	0	0	0	-12.740641	0
0.08500000000000001	0	0	0	0	0	0	125.862679	1814.402466	-41.317375	0.939356	0	-0.395767	0	0	0	0	-12.05039	0
0.08550000000000001	0	0	0	0	0	0	128.903854	1809.440063	-42.169933	0.938257	0	-0.395804	0	0	0	0	-11.361942	0
0.08599999999999999	0	0	0	0	0	0	131.992279	1804.297974	-43.029259	0.937123	0	-0.395837	0	0	0	0	-10.6756	0
0.08649999999999999	0	0	0	0	0	0	135.122894	1798.975586	-43.893742	0.935952	0	-0.395868	0	0	0	0	-9.991666	0
0.08699999999999999	0	0	0	0	0	0	138.290756	1793.472412	-44.761814	0.934747	0	-0.395896	0	0	0	0	-9.310442	0
0.08749999999999999	0	0	0	0	0	0	141.491028	1787.788086	-45.631939	0.933507	0	-0.39592	0	0	0	0	-8.632227	0
0.08799999999999999	0	0	0	0	0	0	144.718994	1781.922363	-46.502632	0.9322319999999999	0	-0.395941	0	0	0	0	-7.95732	0
0.0885	0	0	0	0	0	0	147.970062	1775.874878	-47.372448	0.930924	0	-0.395959	0	0	0	0	-7.286016	0
0.089	0	0	0	0	0	0	151.239792	1769.645508	-48.240009	0.929583	0	-0.395973	0	0	0	0	-6.618609	0
0.0895	0	0	0	0	0	0	154.523865	1763.234375	-49.103977	0.92821	0	-0.395984	0	0	0	0	-5.955391	0
0.09	0	0	0	0	0	0	157.818161	1756.641602	-49.963089	0.926805	0	-0.395991	0	0	0	0	-5.296651	0
0.0905	0	0	0	0	0	0	161.118683	1749.867188	-50.816124	0.925369	0	-0.395994	0	0	0	0	-4.642673	0
0.091	0	0	0	0	0	0	164.4216	1742.911621	-51.661942	0.923903	0	-0.395993	0	0	0	0	-3.99374	0
0.0915	0	0	0	0	0	0	167.723282	1735.775391	-52.499454	0.922408	0	-0.395989	0	0	0	0	-3.350131	0
0.092	0	0	0	0	0	0	171.020218	1728.458984	-53.327641	0.920884	0	-0.395982	0	0	0	0	-2.712121	0
0.0925	0	0	0	0	0	0	174.309128	1720.963135	-54.145535	0.919332	0	-0.395971	0	0	0	0	-2.079982	0
0.093	0	0	0	0	0	0	177.586853	1713.288696	-54.952251	0.917753	0	-0.395957	0	0	0	0	-1.453979	0
0.0935	0	0	0	0	0	0	180.850418	1705.436523	-55.746944	0.916148	0	-0.395939	0	0	0	0	-0.834376	0
0.094	0	0	0	0	0	0	184.097061	1697.407593	-56.528847	0.9145180000000001	0	-0.395919	0	0	0	0	-0.22143	0
0.0945	0	0	0	0	0	0	187.324112	1689.203369	-57.297237	0.912864	0	-0.395896	0	0	0	-0	0.384605	-0
0.095	0	0	0	0	0	0	190.529129	1680.824951	-58.051456	0.9111860000000001	0	-0.395871	0	0	0	-0	0.983482	-0
0.0955	0	0	0	0	0	0	193.709763	1672.273804	-58.790901	0.909485	0	-0.395843	0	0	0	-0	1.574958	-0
0.096	0	0	0	0	0	0	196.863876	1663.551636	-59.515011	0.907762	0	-0.395813	0	0	0	-0	2.158796	-0
0.0965	0	0	0	0	0	0	199.989426	1654.659912	-60.223282	0.906019	0	-0.395781	0	0	0	-0	2.734763	-0
0.097	0	0	0	0	0	0	203.084534	1645.600586	-60.915253	0.904255	0	-0.395747	0	0	0	-0	3.302634	-0
0.0975	0	0	0	0	0	0	206.1474	1636.375488	-61.5905	0.9024720000000001	0	-0.395712	0	0	0	-0	3.86219	-0
0.098	0	0	0	0	0	0	209.176407	1626.986816	-62.24865	0.900671	0	-0.395676	0	0	0	-0	4.413216	-0
0.0985	0	0	0	0	0	0	212.169998	1617.436768	-62.889347	0.898852	0	-0.395639	0	0	0	-0	4.955505	-0
0.099	0	0	0	0	0	0	215.126709	1607.727417	-63.512287	0.897017	0	-0.395601	0	0	0	-0	5.488856	-0
0.09950000000000001	0	0	0	0	0	0	218.045166	1597.861328	-64.117188	0.895165	0	-0.395562	0	0	0	-0	6.013074	-0
0.1	0	0	0	0	0	0	220.924072	1587.841064	-64.70378100000001	0.893299	0	-0.395524	0	0	0	-0	6.527973	-0
0.1005	0	0	0	0	0	0	223.762177	1577.669189	-65.271843	0.891418	0	-0.395485	0	0	0	-0	7.03337	-0
0.101	0	0	0	0	0	0	226.558304	1567.348511	-65.82115899999999	0.889524	0	-0.395446	0	0	0	-0	7.529092	-0
0.1015	0	0	0	0	0	0	229.311264	1556.881958	-66.351524	0.887617	0	-0.395407	0	0	0	-0	8.014972	-0
0.102	0	0	0	0	0	0	232.019943	1546.272217	-66.86277	0.885698	0	-0.395369	0	0	0	-0	8.49085	-0
0.1025	0	0	0	0	0	0	234.683228	1535.522583	-67.354713	0.883769	0	-0.395331	0	0	0	-0	8.956574	-0
0.103	0	0	0	0	0	0	237.299988	1524.63623	-67.827202	0.881829	0	-0.395294	0	0	0	-0	9.412000000000001	-0
0.1035	0	0	0	0	0	0	239.869125	1513.616211	-68.28009	0.879879	0	-0.395258	0	0	0	-0	9.856989	-0
0.104	0	0	0	0	0	0	242.389496	1502.466064	-68.713219	0.87792	0	-0.395223	0	0	0	-0	10.29141	-0
0.1045	0	0	0	0	0	0	244.859955	1491.188965	-69.126465	0.875953	0	-0.395188	0	0	0	-0	10.715142	-0
0.105	0	0	0	0	0	0	247.279343	1479.788452	-69.519676	0.873979	0	-0.395155	0	0	0	-0	11.128071	-0
0.1055	0	0	0	0	0	0	249.646469	1468.268066	-69.89273799999999	0.8719980000000001	0	-0.395123	0	0	0	-0	11.530087	-0
0.106	0	0	0	0	0	0	251.960114	1456.63147	-70.24550600000001	0.870011	0	-0.395091	0	0	0	-0	11.921092	-0
0.1065	0	0	0	0	0	0	254.219009	1444.882202	-70.577866	0.868019	0	-0.395061	0	0	0	-0	12.300994	-0
0.107	0	0	0	0	0	0	256.421906	1433.023804	-70.889679	0.866022	0	-0.395033	0	0	0	-0	12.669709	-0
0.1075	0	0	0	0	0	0	258.567474	1421.060303	-71.180824	0.864021	0	-0.395005	0	0	0	-0	13.027162	-0
0.108	0	0	0	0	0	0	260.654388	1408.995117	-71.45117999999999	0.862017	0	-0.394978	0	0	0	-0	13.373281	-0
0.1085	0	0	0	0	0	0	262.681335	1396.832153	-71.70063	0.8600100000000001	0	-0.394953	0	0	0	-0	13.70801	-0
0.109	0	0	0	0	0	0	264.646942	1384.575195	-71.929047	0.858001	0	-0.394928	0	0	0	-0	14.031293	-0
0.1095	0	0	0	0	0	0	266.549866	1372.228027	-72.13633	0.8559909999999999	0	-0.394905	0	0	0	-0	14.343085	-0
0.11	0	0	0	0	0	0	268.388733	1359.794434	-72.322357	0.85398	0	-0.394882	0	0	0	-0	14.643351	-0
0.1105	0	0	0	0	0	0	270.162231	1347.278198	-72.48704499999999	0.8519679999999999	0	-0.39486	0	0	0	-0	14.932058	-0
0.111	0	0	0	0	0	0	271.868988	1334.683105	-72.63028	0.849956	0	-0.394839	0	0	0	-0	15.209188	-0
0.1115	0	0	0	0	0	0	273.507782	1322.012817	-72.75198399999999	0.847946	0	-0.394819	0	0	0	-0	15.474724	-0
0.112	0	0	0	0	0	0	275.077362	1309.271362	-72.852081	0.845936	0	-0.394799	0	0	0	-0	15.72866	-0
0.1125	0	0	0	0	0	0	276.576477	1296.462158	-72.930504	0.843928	0	-0.394779	0	0	0	-0	15.970998	-0
0.113	0	0	0	0	0	0	278.004059	1283.589111	-72.987206	0.8419219999999999	0	-0.39476	0	0	0	-0	16.201744	-0
0.1135	0	0	0	0	0	0	279.359009	1270.655762	-73.022141	0.839919	0	-0.394741	0	0	0	-0	16.420918	-0
0.114	0	0	0	0	0	0	280.64032	1257.665894	-73.035301	0.837919	0	-0.394722	0	0	0	-0	16.628538	-0
0.1145	0	0	0	0	0	0	281.847076	1244.623047	-73.02668	0.8359220000000001	0	-0.394703	0	0	0	-0	16.82464	-0
0.115	0	0	0	0	0	0	282.978455	1231.530762	-72.996292	0.833929	0	-0.394684	0	0	0	-0	17.009256	-0
0.1155	0	0	0	0	0	0	284.033722	1218.392578	-72.944176	0.83194	0	-0.394664	0	0	0	-0	17.182436	-0
0.116	0	0	0	0	0	0	285.012207	1205.212036	-72.870392	0.829955	0	-0.394644	0	0	0	-0	17.344231	-0
0.1165	0	0	0	0	0	0	285.9133	1191.992432	-72.775024	0.827975	0	-0.394624	0	0	0	-0	17.494696	-0
0.117	0	0	0	0	0	0	286.736603	1178.737061	-72.65818	0.826	0	-0.394603	0	0	0	-0	17.633898	-0
0.1175	0	0	0	0	0	0	287.481659	1165.449585	-72.519989	0.824029	0	-0.394581	0	0	0	-0	17.761911	-0
0.118	0	0	0	0	0	0	288.148163	1152.132935	-72.36061100000001	0.822064	0	-0.394558	0	0	0	-0	17.878813	-0
0.1185	0	0	0	0	0	0	288.735931	1138.790527	-72.180244	0.820105	0	-0.394535	0	0	0	-0	17.984688	-0
0.119	0	0	0	0	0	0	289.244812	1125.425415	-71.979095	0.818151	0	-0.39451	0	0	0	-0	18.079628	-0
0.1195	0	0	0	0	0	0	289.674683	1112.040771	-71.757401	0.816202	0	-0.394484	0	0	0	-0	18.163731	-0
0.12	0	0	0	0	0	0	290.025543	1098.639648	-71.51545	0.81426	0	-0.394458	0	0	0	-0	18.237099	-0
